<?xml version="1.0" encoding="utf-8" ?>
<svg xmlns="http://www.w3.org/2000/svg" xmlns:xlink="http://www.w3.org/1999/xlink" width="1023" height="1023">
	<path fill="#59c6bc" transform="scale(2 2)" d="M365.867 109.294L365.885 125.981C365.886 129.085 366.194 132.567 365.621 135.607C364.867 139.606 359.493 141.479 357.205 137.549C355.282 134.246 356.492 115.341 356.502 110.614C356.515 104.349 354.031 88.7784 359.756 85.5371C362.579 85.3294 364.172 86.1802 365.867 88.5242L365.867 95.3547C371.05 97.5021 378.072 99.628 380.938 104.837C382.634 107.918 385.762 126.209 377.747 123.014C370.069 119.953 383.47 111.764 365.867 106.27L365.867 109.294Z"/>
	<path fill="#59c6bc" transform="scale(2 2)" d="M196.866 333.498L98.199 333.515C72.6774 333.529 71.2109 331.489 71.2336 303.675L71.2371 111.417C71.2387 97.5279 71.1146 87.294 88.173 86.2964L272.24 86.2654C294.283 86.2035 292.375 99.3576 292.364 116.319L292.352 271.814C304.735 272.6 325.372 266.763 325.78 285.751C325.978 294.981 325.785 304.251 325.781 313.487L325.786 393.425C325.804 408.204 327.506 415.537 309.875 415.479L217.888 415.492C200.215 415.501 196.868 416.862 196.861 398.228L196.866 333.498ZM84.9313 96.3342C80.4002 99.1446 81.2586 102.732 81.2665 107.371L81.2956 303.617C81.2949 309.085 81.0809 314.639 81.2981 320.099C85.1665 325.496 91.6807 323.639 97.6628 323.621L196.866 323.601L196.857 297.679C196.864 269.777 200.832 271.745 225.792 271.814L282.291 271.814L282.297 118.865C282.299 106.397 286.75 96.2407 272.153 96.2973L104.168 96.3293C98.1549 96.324 90.717 95.8939 84.9313 96.3342ZM230.686 296.284C215.838 301.316 218.954 319.192 234.732 320.099C249.158 314.091 246.609 295.364 230.686 296.284ZM250.721 349.345C245.511 349.642 243.039 354.687 246.781 357.347C249.361 359.182 262.99 358.46 266.739 358.456C272.379 357.972 273.386 352.722 270.31 350.294C268.088 348.54 254.159 349.359 250.721 349.345ZM284.785 349.345C279.512 350.22 280.252 355.577 283.208 358.456C290.769 358.731 298.662 358.743 306.226 358.456C309.895 357.37 310.743 351.331 307.026 349.814C304.732 348.877 288.485 349.259 284.785 349.345ZM216.729 349.345C215.362 349.828 213.77 350.468 213.124 351.882C208.9 361.122 231.061 358.216 234.732 358.456C238.086 356.889 238.8 350.65 234.577 349.703C230.6 348.81 221.299 349.361 216.729 349.345ZM216.729 370.228C212.799 371.529 210.388 376.974 215.336 378.896C217.609 379.778 241.275 379.274 245.344 379.273L306.226 379.261C310.018 378.858 311.02 373.473 308.139 371.232C305.402 369.103 298.312 370.233 295.069 370.233L216.729 370.228Z"/>
	<path fill="#59c6bc" transform="scale(2 2)" d="M116.992 157.406C100.008 156.93 99.0156 132.904 116.992 131.349C133.207 131.541 134.708 155.757 116.992 157.406Z"/>
	<path fill="#59c6bc" transform="scale(2 2)" d="M256.341 148.356L167.548 148.334C163.449 148.36 149.829 150.388 148.338 144.982C147.53 142.053 149.224 139.302 152.034 138.482C158.798 138.257 165.65 138.475 172.423 138.476L212.884 138.476C218.524 138.477 254.172 137.955 256.918 138.867C262.36 140.674 260.283 146.341 256.341 148.356Z"/>
	<path fill="#59c6bc" transform="scale(2 2)" d="M334.213 212.56C334.334 207.811 333.467 166.232 334.852 164.23C338.149 162.566 400.215 154.703 407.24 154.105C412.178 153.646 411.013 164.543 411.345 167.655C413.339 186.335 413.534 181.769 392.852 184.646L364.647 188.784C357.954 189.732 351.007 190.392 344.409 191.858C344.227 195.041 344.383 198.261 344.392 201.449L344.422 219.125C344.425 223.032 344.692 227.203 344.009 231.056C341.788 243.572 328.052 249.129 317.569 242.649C303.416 233.363 309.55 206.59 334.213 212.56Z"/>
	<path fill="#59c6bc" transform="scale(2 2)" d="M119.416 204.726C102.473 207.263 97.8528 182.616 115.11 179.319C132.204 177.533 135.703 200.587 119.416 204.726Z"/>
	<path fill="#59c6bc" transform="scale(2 2)" d="M256.341 197.251C252.255 197.625 247.834 197.265 243.71 197.262L175.963 197.242C170.609 197.25 154.657 198.466 150.342 196.397C146.04 194.334 148.1 188.385 152.034 187.261L225.904 187.267C230.771 187.266 253.759 186.653 256.889 187.633C262.376 189.352 260.656 195.283 256.341 197.251Z"/>
	<path fill="#59c6bc" transform="scale(2 2)" d="M119.416 251.711C102.136 254.623 96.9118 230.564 115.11 226.287C131.409 224.011 136.07 247.994 119.416 251.711Z"/>
	<path fill="#59c6bc" transform="scale(2 2)" d="M366.582 292.9C366.461 287.62 366.167 240.184 367.16 238.698C371.124 237.04 389.451 235.783 394.937 235.247L433.83 231.384C435.208 231.227 436.574 231.323 437.955 231.384C442.709 234.348 440.951 242.496 440.943 247.841L440.931 290.793C440.953 299.033 442.131 308.008 434.952 313.917C417.641 328.167 396.169 301.845 413.6 288.174C418.952 283.977 424.358 284.179 430.763 284.973L430.763 259.745C418.987 261.631 407.121 263.363 395.311 265.012C390.98 265.617 376.591 265.521 376.729 269.687L376.738 292.109C376.741 297.944 377.522 307.522 375.708 312.903C370.887 327.205 350.473 328.315 344.078 314.923C337.447 301.039 350.82 287.088 366.582 292.9Z"/>
	<path fill="#59c6bc" transform="scale(2 2)" d="M233.366 245.823L162.485 245.844C159.248 245.853 152.353 246.971 149.739 244.602C147.943 242.973 147.486 239.468 149.236 237.64C151.974 234.779 158.478 235.865 161.986 235.888L175.441 235.881C180.674 235.649 186.026 235.877 191.269 235.877L242.783 235.869C247.039 235.847 255.471 234.516 258.958 237.596C262.005 240.288 260.266 245.028 256.476 245.608C253.635 246.043 250.574 245.837 247.699 245.837L233.366 245.823Z"/>
	<path fill="#59c6bc" transform="scale(2 2)" d="M119.416 299.965C101.479 302.507 97.8301 277.622 115.11 274.037C131.62 273.117 135.69 295.74 119.416 299.965Z"/>
	<path fill="#59c6bc" transform="scale(2 2)" d="M181.081 294.724L162.453 294.707C159.052 294.713 152.751 295.798 149.767 293.731C145.884 291.042 148.862 285.465 153.248 284.973C157.481 284.975 181.602 284.233 184.05 285.935C187.83 288.562 185.075 294.16 181.081 294.724Z"/>
</svg>
