<?xml version="1.0" encoding="utf-8" ?>
<svg xmlns="http://www.w3.org/2000/svg" xmlns:xlink="http://www.w3.org/1999/xlink" width="1023" height="1023">
	<path fill="#59c6bc" transform="scale(2 2)" d="M337.256 86.0152C333.323 86.0199 318.366 86.5169 323.869 77.6902C326.346 73.7157 336.626 71.9336 340.831 70.4676L360.746 63.6323C364.201 62.48 367.669 61.1882 371.2 60.299C375.283 59.8938 379.026 61.6233 382.823 62.887L395.974 67.2483C401.575 69.0951 433.487 74.9904 418.377 86.0152C414.848 86.2825 411.237 86.0783 407.699 86.0152C407.379 91.4376 407.686 96.989 407.691 102.43L407.699 135.349C424.036 139.788 422.533 164.539 407.144 169.687C384.855 177.143 373.706 141.996 395.79 135.349L395.79 111.881C385.005 113.697 376.418 118.072 365.327 115.291C360.008 113.956 354.485 112.159 349 111.881C349.233 115.875 348.42 131.113 349.777 133.849L350.465 134.046C372.362 138.061 383.169 168.55 367.404 186.674C355.817 199.994 335.774 201.01 322.624 189.363C302.787 171.794 314.587 135.054 337.256 134.046L337.256 86.0152Z"/>
	<path fill="#59c6bc" transform="scale(2 2)" d="M264.537 113.125C264.556 109.498 263.742 97.2209 265.295 94.632C266.668 92.3412 296.886 81.7019 303.044 80.0355C306.115 79.7731 308.054 81.1086 309.777 83.6423L309.788 104.843C309.8 113.269 311.568 123.76 300.298 125.541C285.782 127.835 280.363 106.364 297.664 103.936L297.664 95.5848C290.703 97.6902 284.026 100.657 277.014 102.714L277.014 109.562C276.995 113.965 277.851 125.019 276.335 128.571C272.537 137.469 258.551 136.733 255.48 127.515C253.29 120.94 257.973 114.967 264.208 113.214L264.537 113.125Z"/>
	<path fill="#59c6bc" transform="scale(2 2)" d="M100.222 233.248C85.4739 233.139 79.5363 237.765 79.4671 220.761C79.452 217.067 77.9326 207.021 81.4707 204.491C87.7503 200 95.0378 196.507 101.731 192.652L183.914 146.408C188.353 143.905 196.122 138.908 200.635 137.26C204.931 136.958 210.961 141.747 214.648 143.81L310.25 197.49C314.197 199.751 319.155 202.005 322.526 205.031C325.862 208.026 325.149 225.195 324.16 228.66C322.132 235.764 309.538 233.271 304.273 233.248L304.273 260.331L404.974 260.317C417.757 260.271 431.406 259.676 431.96 276.776C432.341 288.519 431.986 300.387 431.983 312.143L432.007 324.728C432.041 338.579 429.785 336.621 416.26 336.695L416.278 414.331C416.398 443.462 403.283 440.251 378.118 440.254L332.125 440.248L131.507 440.262C124.195 440.264 100.7 443.918 100.199 434.877C99.8138 427.923 100.213 420.695 100.217 413.715L100.222 233.248ZM201.846 150.968C193.986 154.221 186.644 159.06 179.255 163.268L146.369 181.751C129.306 191.408 107.733 201.962 91.7284 212.832L91.7284 220.814C95.3912 220.985 99.0819 220.832 102.749 220.822L182.152 220.814C185.089 211.286 193.367 205.15 203.347 206.044C211.704 207.493 217.903 212.684 220.115 220.814L312.275 220.814C312.289 218.161 312.386 215.482 312.275 212.832C295.18 202.304 276.463 192.955 258.885 183.108L210.66 155.919C208.889 154.932 203.334 151.246 201.846 150.968ZM200.635 218.071C190.695 220.013 191.854 233.34 201.846 233.248C211.035 230.16 211.168 218.54 200.635 218.071ZM112.514 233.248L112.514 428.231L174.597 428.231L174.601 367.093C174.602 356.993 174.923 346.782 174.597 336.695C167.595 336.857 161.507 338.318 161.31 329.457C161.081 319.114 161.302 308.722 161.312 298.375L161.296 283.276C161.293 261.573 165.217 260.302 186.353 260.314L263.077 260.339C272.599 260.34 282.248 260.664 291.755 260.331L291.755 233.248L219.127 233.248C210.678 249.566 189.009 249.201 183.426 233.248L112.514 233.248ZM266.692 292.323C261.227 293.548 259.459 300.961 264.584 303.998C268.301 306.201 275.086 304.997 279.207 304.965L317.552 304.992C320.99 304.994 324.512 305.167 327.94 304.98C333.254 303.518 334.764 296.088 329.715 293.181C326.582 291.377 273.055 292.226 266.692 292.323ZM243.533 336.695L240.426 336.695L240.426 392.63L232.488 392.63L232.488 410.819L223.269 410.819L223.269 392.63C220.829 392.469 218.405 392.557 215.964 392.63C215.703 374.001 215.965 355.329 215.964 336.695L186.964 336.695L186.961 411.436C186.961 414.179 186.269 425.192 188.246 427.207C190.439 429.442 231.156 428.233 237.236 428.233L389.339 428.232C395.713 428.225 404.012 429.801 404.628 420.998C405.064 414.766 404.723 408.282 404.716 402.027L404.7 346.464C404.7 343.876 405.619 339.004 404.231 336.79L403.563 336.695L374.751 336.695L374.751 391.998C372.284 391.883 369.855 391.795 367.388 391.998C367.188 398.259 367.419 404.553 367.388 410.819L358.004 410.819L358.004 391.998L349 391.998L349 336.695C343.096 336.39 335.913 336.296 330.015 336.695L330.015 391.998L322.668 391.998L322.668 410.819L313.774 410.819L313.774 391.998C310.587 392.158 307.46 392.242 304.273 391.998L304.273 336.695C298.378 336.586 291.015 336.308 285.241 336.695L285.241 391.998C282.5 391.996 279.754 391.958 277.014 391.998L277.014 410.819L268.158 410.819L268.158 391.998C265.497 392.136 262.903 392.175 260.24 391.998L260.24 336.695L243.533 336.695Z"/>
</svg>
