<?xml version="1.0" encoding="utf-8" ?>
<svg xmlns="http://www.w3.org/2000/svg" xmlns:xlink="http://www.w3.org/1999/xlink" width="1023" height="1024">
	<path fill="#59c6bc" transform="scale(2 2)" d="M399.95 89.8186C408.075 89.283 413.9 94.5185 420.358 98.6432C429.806 104.679 441.713 109.923 438.564 123.653C436.613 132.155 423.089 145.711 422.075 151.392C421.562 154.269 422.049 161.257 422.062 164.633L422.075 398.031C422.076 402.759 422.332 407.89 421.434 412.545C418.194 429.343 404.035 430.519 390.658 430.515L112.375 430.505C96.1586 430.404 76.8362 431.14 73.8006 409.067C73.3076 405.482 73.5448 401.679 73.585 398.066L73.5703 148.738C73.5246 128.696 87.4263 123.562 104.933 123.6L371.384 123.619C373.765 117.292 378.879 111.296 382.561 105.675C387.978 97.4048 389.627 92.0754 399.95 89.8186ZM343.562 138C338.003 137.861 332.43 137.997 326.87 137.998L107.083 138C96.2246 138.004 87.362 136.763 87.2311 150.636L87.2519 393.898C87.265 405.323 86.042 416.95 101.004 416.91L257.256 416.75L257.256 395.764C253.712 395.759 247.74 397.169 247.187 392.247C246.123 382.771 246.801 362.943 247.13 353.231C247.204 351.058 247.877 349.633 250.137 349.304C253.311 348.841 268.788 347.279 269.713 352.172C270.345 355.513 269.845 365.325 269.852 369.321L269.899 384.912C269.934 394.099 272.217 395.653 262.981 395.764L262.981 416.75L295.009 416.75L295.009 395.764C292.809 395.797 289.071 396.337 287.171 395.078C285.49 392.15 285.525 351.164 287.867 349.86C289.702 348.838 303.403 348.828 305.573 349.463C310.545 350.919 308.467 366.162 308.467 370.589C308.465 377.474 308.763 384.432 308.559 391.306C308.4 396.66 305.271 395.909 300.981 395.764L300.981 416.75L333.511 416.75C333.755 409.778 333.49 402.744 333.511 395.764C323.329 395.916 325.333 393.546 325.381 385.489L325.358 370.561C325.341 365.016 324.873 359.126 325.349 353.625C326.095 345.008 346.849 350.198 346.985 350.38C348.477 352.384 348.057 391.855 347.245 394.365C346.465 396.778 341.217 395.833 339.369 395.764C339.265 402.761 339.385 409.754 339.369 416.75L371.384 416.75C371.277 409.755 371.474 402.759 371.384 395.764C366.601 396.022 365.063 396.395 364.798 391.296C364.455 384.679 364.733 377.888 364.732 371.252C364.731 365.663 362.862 352.681 367.33 349.164C372.016 348.702 383.818 347.814 386.866 351.863C387.047 356.419 387.257 393.767 386.327 394.926C384.797 396.833 379.347 395.904 377.25 395.764L377.25 416.75L392.368 416.794C408.797 416.822 409.09 414.392 409.117 398.665L409.141 177.748C409.155 175.088 409.364 172.333 409.116 169.689C390.637 195.692 371.646 222.729 354.065 249.365C348.979 257.071 347.844 257.656 340.154 262.844L320.115 276.233C317.676 277.898 308.321 285.316 306.079 285.674C291.313 288.03 299.521 262.996 300.663 255.897L304.188 234.523C306.802 218.797 308.038 221.149 316.792 207.51L348.56 158.13C352.651 151.794 358.348 144.455 361.781 138C355.711 137.88 349.633 138.015 343.562 138ZM386.866 123.619C382.787 129.633 378.847 135.731 375.008 141.902C383.572 147.378 392.866 152.04 401.184 157.844C405.078 151.868 409.174 145.933 412.846 139.824L396.419 129.711C393.227 127.746 389.898 125.819 386.866 123.619ZM401.184 103.154C398.515 106.155 396.4 109.857 394.352 113.302C402.966 117.811 411.508 123.088 419.603 128.474C420.937 127.889 424.677 121.755 425.545 120.248C425.526 119.436 425.451 118.576 425.545 117.771C421.115 114.902 405.074 104.243 401.184 103.154ZM318.508 233.749C317.067 243.08 315.799 254.793 313.595 263.875C317.956 261.255 322.281 258.29 326.36 255.25C330.87 252.825 335.242 249.666 339.369 246.638C333.899 244.335 322.727 237.79 318.508 233.749Z"/>
	<path fill="#59c6bc" transform="scale(2 2)" d="M133.155 371.371L174.432 371.386C178.309 371.396 188.209 370.719 191.335 371.743C194.83 372.888 193.757 376.69 190.813 377.603C187.953 377.75 185.046 377.615 182.18 377.612L142.588 377.564C139.915 377.569 131.634 378.976 130.393 375.73C129.472 373.322 131.049 371.887 133.155 371.371Z"/>
	<path fill="#59c6bc" transform="scale(2 2)" d="M187.356 216.498C191.383 216.224 195.425 216.466 199.458 216.491L219.881 216.521C227.419 216.532 247.786 213.683 249.208 222.11C249.994 226.764 247.242 230.27 242.72 230.888L207.085 230.898C197.105 230.896 182.628 234.551 179.579 223.393C180.794 218.917 182.566 217.012 187.356 216.498Z"/>
	<path fill="#59c6bc" transform="scale(2 2)" d="M186.324 177.729C190.727 177.405 195.36 177.722 199.787 177.725L258.074 177.728C262.952 177.722 268.004 177.41 272.867 177.72C282.353 178.323 282.206 191.128 273.062 192.002C265.947 191.76 258.736 191.994 251.613 191.992L194.384 192.058C189.344 192.065 181.106 193.182 180.011 186.209C179.357 182.044 182.098 178.317 186.324 177.729Z"/>
	<path fill="#59c6bc" transform="scale(2 2)" d="M187.356 294.25L242.761 294.241C247.993 294.241 273.126 292.962 276.589 295.297C282.521 299.297 280.869 308.729 273.062 308.748L197.981 308.729C192.381 308.75 181.727 310.454 180.076 302.943C178.992 298.011 182.982 294.993 187.356 294.25Z"/>
	<path fill="#59c6bc" transform="scale(2 2)" d="M186.324 255.25L265.236 255.252C268.502 255.25 272.649 254.473 275.728 255.84C282.728 258.949 280.985 267.829 274.444 270.033C270.875 270.397 266.978 270.059 263.371 270.042L208.462 270.018C202.635 270.028 189.01 271.283 183.882 268.96C176.809 265.755 178.904 257.88 186.324 255.25Z"/>
	<path fill="#59c6bc" transform="scale(2 2)" d="M140.271 262.569C143.31 262.661 146.643 264.683 147.516 267.691C148.058 269.559 147.961 310.71 147.471 314.724C145.901 327.573 131.078 336.213 119.573 328.629C101.361 319.159 111.031 290.237 133.753 295.078C134.188 288.799 133.76 282.262 133.76 275.954C133.759 269.946 132.916 263.842 140.271 262.569Z"/>
	<path fill="#59c6bc" transform="scale(2 2)" d="M139.506 163.057C151.791 161.666 147.693 186.849 147.713 194.655L147.755 208.53C147.772 213.663 148.175 218.76 145.788 223.498C141.003 232.997 128.843 236.293 119.573 231.606C102.214 222.088 108.302 193.292 133.753 197.905L133.725 179.584C133.722 173.907 131.953 164.517 139.506 163.057Z"/>
</svg>
