<?xml version="1.0" encoding="utf-8" ?>
<svg xmlns="http://www.w3.org/2000/svg" xmlns:xlink="http://www.w3.org/1999/xlink" width="1023" height="1023">
	<path fill="#4DB6AC" transform="scale(2 2)" d="M332.778 136.265C337.415 136.026 341.966 140.505 345.688 142.849C352.596 147.2 362.253 150.965 365.12 159.345C367.349 165.863 366.166 178.498 357.465 173.065C353.411 170.533 356.219 166.653 355.347 163.108C354.498 159.654 341.503 152.601 337.982 150.437C333.844 162.828 330.765 177.107 327.72 189.824C318.164 227.12 280.519 203.949 294.97 184.808C300.519 177.458 311.696 174.52 319.335 180.332C323.37 167.727 326.054 154.089 329.63 141.263C330.342 138.71 330.354 137.631 332.778 136.265Z"/>
	<path fill="#4DB6AC" transform="scale(2 2)" d="M331.576 102.148C370.631 98.552 409.791 136.752 401.863 176.389C400.126 185.068 395.944 202.794 393.153 210.594C385.466 232.079 350.948 225.198 360.616 201.086C365.114 191.258 377.095 188.978 385.991 193.965C390.16 181.57 393.998 169.804 391.029 156.623C383.977 125.313 352.056 107.239 321.384 114.94C317.873 115.821 314.669 117.942 311.189 118.632C306.735 119.515 303.646 113.344 306.531 110.03C310.458 105.519 325.658 102.607 331.576 102.148Z"/>
	<path fill="#4DB6AC" transform="scale(2 2)" d="M405.967 305.25L428.591 305.223C446.106 305.208 444.333 304.52 444.466 323.491C444.571 338.608 447.654 341.201 430.8 341.146L410.499 341.123L410.499 374.269C410.507 379.511 413.135 391.978 405.967 392.999C398.232 393.301 378.484 393.902 371.193 392.774C364.528 391.743 366.785 380.062 366.79 375.467C366.806 359.124 362.893 356.708 381.474 356.725L400.75 356.749C401.083 349.93 399.873 311.634 401.34 308.61C402.23 306.775 404.161 305.916 405.967 305.25Z"/>
	<path fill="#4DB6AC" transform="scale(2 2)" d="M330.007 60.1224C421.19 57.9704 476.307 161.766 425.706 236.771C417.832 248.442 406.859 258.442 395.266 266.319C388.202 271.12 361.5 287.112 354.8 277.091C354.138 268.081 364.8 268.325 371.127 266.014C431.735 241.773 451.793 168.048 415.007 114.558C391.249 80.0105 349.351 64.1796 308.896 74.1364C302.891 75.6143 296.238 79.3999 293.589 71.2504C293.842 70.0191 294.206 68.8294 294.565 67.6261C300.063 62.6348 322.21 60.4225 330.007 60.1224Z"/>
	<path fill="#4DB6AC" transform="scale(2 2)" d="M160.742 98.001C209.447 95.5646 253.52 129.868 258.153 179.272C258.611 184.163 257.785 192.726 259.406 196.958C264.788 211.015 285.653 236.478 274.357 247.873C269.835 252.435 264.867 252.995 258.75 253.012C258.763 259.132 258.922 265.304 258.726 271.418C258.056 292.32 240.859 308.541 219.998 308.191C215.755 308.12 211.566 307.372 207.334 307.243L207 307.235L207 333.099C241.034 349.933 261.073 385.988 263.384 423.293C263.738 429.004 265.157 436.753 260.431 441.004C258.262 441.266 255.952 441.057 253.766 441.037L201.875 441.004L87.4139 441.021C82.4575 441.025 77.3589 441.26 72.419 440.934C65.6618 440.488 67.7359 428.965 67.7439 423.843L67.7505 381.287C67.7286 368.214 68.2124 358.151 76.9696 347.229C83.7058 338.828 108.628 321.054 117.877 313.321L117.871 291.75C117.906 287.607 118.217 283.312 117.877 279.19C99.8839 254.867 81.0005 224.065 78.0496 193.615C72.8486 139.947 109.55 102.827 160.742 98.001ZM124.172 323.937C118.015 326.476 113.008 332.134 107.836 336.219L94.0868 347.188C76.0377 361.619 79.076 369.012 79.0716 391.396L79.0791 429.606C86.6488 430.234 100.805 429.996 108.502 429.606C108.114 414.614 108.508 399.503 108.502 384.496C112.084 384.517 115.808 384.751 119.373 384.496C118.857 399.503 119.87 414.595 119.373 429.606L208.938 429.606L223.257 429.606L223.252 397.142C223.245 392.206 222.841 387.012 223.257 382.112C227.035 382.091 230.879 381.918 234.649 382.112C234.476 397.728 235.273 414.13 234.649 429.606C240.377 429.83 246.3 430.258 252.002 429.606C252.271 405.797 242.378 378.109 225.6 361C207.677 342.723 198.534 341.064 175.746 335.597L144.861 328.279C138.803 326.891 130.097 324.029 124.172 323.937ZM181.331 111.174C169.109 119.436 158.11 145.236 157.421 160.263C160.778 161.852 164.291 162.989 167.578 164.749C204.713 184.625 195.363 241.212 157.421 248.64C155.845 275.78 178.022 287.851 201.475 294.191C204.406 294.983 207.702 296.151 210.754 296.163C219.435 297.83 228.522 297.357 236.011 292.275C250.594 282.377 247.523 260.667 247.501 244.732C252.999 236.32 259.748 247.401 267.952 238.319C265.658 232.377 261.765 227.666 258.583 222.245C251.766 210.63 247.762 199.601 247.444 186.179C246.537 147.918 218.454 117.249 181.331 111.174ZM119.373 123.24C102.519 136.237 92.7459 152.362 89.8954 173.93C84.9395 211.429 108.537 247.183 129.416 276.156L129.427 299.814C129.434 303.947 129.756 308.313 129.416 312.421C135.612 314.338 141.996 315.737 148.304 317.239L179.021 324.469C184.601 325.785 190.229 326.996 195.756 328.522C195.747 327.003 195.673 325.452 195.756 323.937C195.761 317.439 195.846 310.929 195.756 304.432C170.422 296.743 144.403 279.843 145.904 250.521C92.6957 251.972 78.0156 177.17 132.457 160.263C128.829 151.366 125.187 142.325 122.589 133.069C121.953 130.806 121.361 124.485 119.373 123.24ZM143.669 154.342C133.525 157.874 141.583 182.783 138.566 187.077C137.78 188.196 134.63 189.165 133.405 190.061C118.163 201.206 126.754 224.875 145.369 224.222C164.449 221.003 170.727 200.127 155.728 189.968C154.181 188.92 152.522 188.206 150.843 187.407C150.746 181.527 150.831 175.638 150.851 169.758C150.871 164.1 152.378 153.747 143.669 154.342Z"/>
	<path fill="#4DB6AC" transform="scale(2 2)" d="M142.853 197.782C153.417 196.7 156.522 209.344 145.904 213.234C135.205 213.881 133.355 201.057 142.853 197.782Z"/>
	<path fill="#4DB6AC" transform="scale(2 2)" d="M216.211 252.009C216.518 251.977 216.688 252.048 216.979 252.138C222.399 259.004 231.45 262.839 240.102 262.759C239.714 270.895 243.584 274.669 233.125 273.166C222.534 271.729 213.514 265.242 207 257.055C210.398 255.718 213.194 254.022 216.211 252.009Z"/>
	<path fill="#4DB6AC" transform="scale(2 2)" d="M222.469 190.836C230.79 189.533 238.11 194.819 241.81 201.976C238.855 203.963 235.91 205.619 233.125 207.882C231.435 205.132 229.936 202.965 226.686 201.976C221.409 200.817 217.71 203.2 215.109 207.882C212.489 205.98 209.876 204.204 207 202.707C209.65 195.832 215.208 192.038 222.469 190.836Z"/>
</svg>
