<?xml version="1.0" encoding="utf-8" ?>
<svg xmlns="http://www.w3.org/2000/svg" xmlns:xlink="http://www.w3.org/1999/xlink" width="1023" height="1023">
	<path fill="#59c6bc" transform="scale(2 2)" d="M392.481 68.2904C395.122 66.0951 397.591 64.348 400.888 63.3022C408.974 62.4304 411.532 67.2932 416.649 72.5063C422.072 78.0317 439.579 93.8271 442.811 99.0681C448.986 109.084 436.255 116.367 430.422 122.259C436.541 127.716 436.627 136.571 428.172 137.13C423.833 137.417 421.191 134.012 418.296 131.351C415.571 134.044 412.692 136.609 409.875 139.207C412.253 141.424 415.507 143.814 415.95 147.239C416.5 151.497 413.034 155.382 408.815 155.665C404.678 155.943 401.915 152.401 399.081 149.944C395.985 152.524 391.047 157.739 387.967 159.512C385.444 160.964 381.989 160.353 379.756 162.238C375.115 166.157 370.859 170.97 366.537 175.27L313.495 228.377C308.306 233.555 302.665 238.587 298.046 244.288C310.674 269.342 307.357 307.767 284.889 325.915C274.36 334.419 265.392 336.426 258.135 350.24C254.281 357.576 254.405 362.903 253.168 370.694C247.992 403.289 220.614 432.393 187.8 437.882C160.382 442.468 138.541 431.891 116.855 416.363C86.0594 392.953 60.4881 352.735 70.3948 312.719C77.9207 282.321 104.677 258.205 135.376 252.891C157.462 249.068 159.5 251.44 173.626 232.289C197.118 200.44 227.596 191.444 263.44 210.706C268.664 205.084 274.397 199.838 279.778 194.351L332.83 140.811C339.214 134.328 345.711 127.968 351.962 121.354C349.357 118.484 342.634 113.191 342.692 109.302C342.752 105.292 347.288 100.971 351.337 101.322C354.877 101.63 358.198 106.329 360.396 108.825C362.55 106.428 364.618 103.966 366.685 101.494C364.132 99.1255 359.823 96.3341 359.776 92.5439C359.657 82.691 368.741 81.4735 375.935 88.7265C377.842 86.2701 379.873 83.9617 382.07 81.7632C380.052 79.0074 376.92 77.4593 376.963 73.6274C377.035 67.1853 385.274 60.04 392.481 68.2904ZM402.206 84.4031C390.208 98.6575 378.853 114.202 366.685 128.097C371.054 132.056 377.036 137.814 380.904 142.173C382.222 141.054 383.556 140.119 385.025 139.207C389.368 134.212 395.152 130.092 400.134 125.724L414.808 113.059C417.612 110.61 420.248 107.921 423.175 105.623L410.119 92.0672C407.684 89.5453 405.105 86.3511 402.206 84.4031ZM356.577 141.29L244.528 253.847C238.775 259.68 232.791 265.411 227.285 271.467C229.953 273.377 232.623 275.233 234.774 277.744C235.203 278.245 236.129 279.883 236.911 279.72L358.706 158.353C361.335 155.777 363.852 153.094 366.685 150.739C363.194 147.766 360.214 144.044 356.577 141.29ZM226.534 218.766C206.154 219.127 195.257 231.452 184.968 246.562C178.217 256.476 166.706 264.721 155.177 268.2C148.525 270.207 141.453 270.128 134.715 271.77C117.177 276.046 99.7435 288.885 100.205 308.513C100.519 321.857 108.567 328.31 117.065 337.013L140.481 360.859C152.754 373.113 164.424 386.082 177.079 397.946C183.404 403.875 191.162 406.183 199.756 405.874C220.789 405.116 232.281 386.425 235.786 367.57C237.708 357.238 237.228 351.736 242.552 341.643C250.045 327.723 259.081 323.286 270.714 314.278C289.234 299.935 291.881 276.91 284.707 255.99C274.245 267.084 263.132 277.647 252.388 288.477C249.14 291.751 245.154 294.537 242.552 298.376C241.452 301.191 241.33 304.25 240.529 307.144C233.105 334 192.788 336.529 180.877 311.514C172.375 293.661 182.705 272.538 201.861 267.894C212.336 265.355 210.793 263.696 218.748 255.582L237.191 236.896C241.428 232.596 245.544 228.169 250.038 224.133C242.644 220.76 234.846 217.692 226.534 218.766Z"/>
	<path fill="#59c6bc" transform="scale(2 2)" d="M427.903 81.7632L427.562 81.5258C427.236 78.3579 427.744 74.8098 427.903 71.6169C428.831 73.3683 427.987 79.5742 427.903 81.7632Z"/>
	<path fill="#59c6bc" transform="scale(2 2)" d="M130.618 323.718C131.648 319.522 134.748 315.742 138.757 314.066C146.1 313.474 156.777 327.76 162.237 333.174C166.794 337.693 190.437 359.613 192.788 364.092C195.659 369.563 190.05 374.605 185.451 376.674C179.476 377.218 175.769 370.897 172.072 367.163L140.54 335.871C136.971 332.249 132.23 328.706 130.618 323.718Z"/>
</svg>
