<?xml version="1.0" encoding="utf-8" ?>
<svg xmlns="http://www.w3.org/2000/svg" xmlns:xlink="http://www.w3.org/1999/xlink" width="1023" height="1023">
	<path fill="#4DB6AC" transform="scale(2 2)" d="M390.822 130.836C398.214 131.658 397.427 137.754 397.25 143.737L398.037 143.624C408.08 142.25 411.152 155.756 397.25 156.35L397.267 178.458C397.281 182.665 397.76 187.513 396.941 191.652C394.837 202.285 382.464 207.047 372.685 205.011C347.567 199.782 355.187 166.32 385.253 174.046C384.767 163.975 385.609 153.82 385.253 143.737C378.726 143.748 371.948 144.908 365.421 145.468C351.746 146.643 336.009 147.777 322.491 149.824L322.491 153.425L322.485 188.166C322.497 193.181 323.1 201.588 322.136 206.17C317.702 227.227 277.578 221.034 283.329 198.138C286.281 186.386 299.75 182.921 310.256 185.69C310.42 182.216 310.271 178.678 310.266 175.196L310.248 155.288C310.245 149.933 308.107 139.457 315.22 137.966C321.42 136.667 330.35 136.421 336.87 135.762C354.832 133.945 372.825 132.272 390.822 130.836Z"/>
	<path fill="#4DB6AC" transform="scale(2 2)" d="M192.408 90.998C216.779 89.6673 240.113 97.2719 255.899 116.822C277.589 92.7436 293.914 90.9993 323.336 90.9904L378.827 90.9954C385.621 90.9979 396.301 88.4727 397.096 98.01C397.493 102.771 399.667 120.985 391.288 120.896C383.168 120.809 385.228 108.507 385.253 103.293L320.953 103.274C296.805 103.272 276.145 106.997 262.251 129.853L262.251 361.734C277.146 352.599 285.476 352.192 301.598 352.234L321.542 352.251C317.81 350.189 313.914 348.325 310.332 346.013C286.552 330.661 275.735 299.402 284.544 272.536C295.637 238.705 331.502 220.163 365.41 231.796C398.251 243.063 416.349 280.985 405.05 313.637C398.152 333.57 386.145 343.559 368.187 352.251C376.515 351.338 389.336 352.088 398.222 352.234C402.872 352.311 412.148 350.082 413.271 356.833C414.931 366.813 402.602 364.748 396.753 364.748L302.713 364.73C284.396 364.649 275.614 365.665 261.443 379.723C254.271 386.837 254.902 383.624 248.616 377.371C236.203 365.021 225.338 364.705 209.731 364.735L118.285 364.752C102.846 364.747 100.142 366.806 100.139 351.529L100.138 153.425C92.8234 153.231 85.4759 153.465 78.1554 153.425C78.336 161.197 78.1549 169.003 78.1536 176.779L78.1554 223.062C77.8532 240.612 78.1676 258.207 78.1628 275.762L78.1554 386.211C89.5239 386.488 100.974 386.218 112.35 386.217L194.877 386.209C208.501 386.208 222.202 385.896 235.818 386.207C242.188 386.352 241.536 388.645 245.492 392.591C251.234 398.319 261.947 397.832 267.17 391.679C274.628 382.892 279.077 386.213 291.063 386.211L433.879 386.211C434.156 363.504 433.859 340.761 433.883 318.049L433.879 153.425C429.649 153.777 424.634 154.123 420.447 153.425L420.376 153.375C417.175 151.138 415.095 146.579 418.152 143.238C421.277 139.821 436.715 140.497 440.607 141.294C449.802 143.176 446.181 166.569 446.174 174.512L446.174 386.634C446.238 402.853 436.695 398.516 423.431 398.507L278.657 398.497C265.362 411.957 246.393 415.225 233.754 398.497L88.319 398.5C69.0823 398.507 65.6447 402.926 65.6817 380.5L65.6924 165.59C65.6899 159.78 65.4905 153.897 65.7861 148.098C66.277 138.465 77.158 140.787 83.8852 140.908C89.3021 141.005 94.7203 140.995 100.138 140.996L100.136 110.934C100.111 93.379 96.5369 90.9346 116.583 90.9835L192.408 90.998ZM136.249 103.293C128.301 103.377 120.354 103.286 112.406 103.293L112.406 352.251L208.035 352.243C216.303 352.236 224.622 351.75 232.707 353.834C238.642 355.687 244.775 357.614 249.557 361.734L249.557 129.853C233.626 101.273 203.999 103.271 176.408 103.297L136.249 103.293ZM344.406 279.095C324.587 281.747 329.99 309.33 346.426 307.362C366.644 303.809 359.583 276.476 344.406 279.095Z"/>
	<path fill="#4DB6AC" transform="scale(2 2)" d="M219.688 177.409C223.777 177.336 233.111 176.179 231.759 183.044C231.423 184.751 230.218 185.772 228.871 186.738C226.143 186.929 223.341 186.765 220.604 186.759L204.625 186.738C201.632 186.77 195.718 187.632 193.428 185.569C191.694 184.006 191.808 180.286 193.447 178.707C195.707 176.53 202.074 177.381 204.905 177.383L219.688 177.409Z"/>
	<path fill="#4DB6AC" transform="scale(2 2)" d="M134.521 177.409C136.712 177.191 139.017 177.381 141.22 177.394L170.332 177.398C174.254 177.398 184.965 175.776 183.79 182.623C183.473 184.471 182.472 185.674 180.984 186.738C173.157 187.985 146.538 186.983 138.019 186.745C130.957 186.548 129.257 180.373 134.521 177.409Z"/>
	<path fill="#4DB6AC" transform="scale(2 2)" d="M137.251 208.815L215.246 208.81C218.976 208.81 222.81 208.652 226.523 209.02C234.605 209.82 233.084 218.371 225.965 218.393L134.521 218.393C133.653 217.846 132.948 217.232 132.209 216.522C130.72 212.054 132.386 208.896 137.251 208.815Z"/>
	<path fill="#4DB6AC" transform="scale(2 2)" d="M136.249 303.597C140.333 303.401 144.508 303.59 148.602 303.591L207.822 303.595C213.464 303.593 219.13 303.446 224.769 303.57C232.556 303.741 234.695 310.095 228.005 313.243C209.082 313.614 190.072 313.241 171.141 313.243L147.677 313.229C144.205 313.226 140.58 313.49 137.13 313.263C130.27 312.811 129.793 304.83 136.249 303.597Z"/>
	<path fill="#4DB6AC" transform="scale(2 2)" d="M208.272 240.524C216 240.524 231.827 236.939 231.755 246.416C228.716 251.595 222.81 250.06 217.637 250.045L155.375 250.245L142.637 250.303C138.036 250.34 131.493 251.485 131.472 244.813C131.454 239.019 143.402 240.517 147.006 240.521L193.067 240.524C198.133 240.519 203.208 240.377 208.272 240.524Z"/>
	<path fill="#4DB6AC" transform="scale(2 2)" d="M197.442 272.015C201.635 271.668 228.003 271.254 230.055 272.997C233.013 275.509 231.905 280.84 227.983 281.472C223.267 282.232 213.202 281.75 207.997 281.751L166.125 281.743L146.228 281.769C142.958 281.772 134.831 283.051 132.625 279.924C130.368 276.724 131.687 274.093 134.521 272.015C155.472 272.361 176.485 272.017 197.442 272.015Z"/>
</svg>
