<?xml version="1.0" encoding="utf-8" ?>
<svg xmlns="http://www.w3.org/2000/svg" xmlns:xlink="http://www.w3.org/1999/xlink" width="1023" height="1023">
	<path fill="#59c6bc" transform="scale(2 2)" d="M147.325 111.808C150.153 110.775 153.407 110.471 156.363 109.919L357.122 70.3425C361.059 69.5996 364.978 68.6582 368.943 68.0924C373.53 67.7172 377.147 72.853 374.956 76.9471C372.925 80.7423 369.554 84.2424 366.997 87.7591C358.481 99.4755 349.415 110.847 341.189 122.766C357.268 144.896 373.59 150.655 399.07 150.718L418.659 150.679C421.437 150.67 425.271 150.269 427.492 152.243C430.177 154.628 430.562 158.702 427.866 161.289C425.074 163.969 418.565 163.032 414.877 163.064C414.657 176.715 414.882 190.409 414.873 204.065C414.862 220.33 411.869 249.509 428.293 259.185C432.487 261.655 437.617 261.058 437.712 267.087C437.964 283.057 437.716 299.073 437.712 315.049L437.707 329.939C437.698 347.361 434.415 344.773 419.375 344.764L396.219 344.74C396.328 361.371 395.363 378.023 394.757 394.64L394.069 414.32C393.575 429.186 396.432 432.353 380.764 432.484C364.177 432.623 363.411 433.613 363.457 417.891L363.483 344.74C347.715 344.54 326.792 343.635 311.263 344.74C311.172 348.452 311.971 373.214 310.689 375.245C307.653 377.379 302.112 376.299 298.657 376.292L278.496 376.275L278.496 420.247C282.13 420.225 288.095 419.339 291.055 421.599C293.829 423.718 294.356 428.037 292.089 430.722C289.339 433.978 279.555 432.528 275.758 432.529L234.837 432.491C230.693 432.517 223.33 433.858 219.911 430.865C217.553 428.801 217.356 424.253 219.567 422.02C222.324 419.236 230.575 420.216 234.363 420.247L234.363 406.457L234.363 376.275C230.943 376.058 227.378 376.256 223.945 376.259L202.99 376.275C199.239 373.673 200.732 368.685 200.737 364.673L200.756 344.74C195.108 344.409 189.236 344.728 183.566 344.73L148.531 344.74C148.318 364.285 148.511 383.859 148.527 403.406L148.558 419.217C148.568 424.419 150.013 430.798 143.322 432.276C139.997 433.01 123.553 433.737 120.554 430.496C118.198 427.95 118.57 416.839 118.382 413.473L115.251 363.97C114.869 357.603 114.221 351.115 114.317 344.74L91.8866 344.759C76.0504 344.763 74.616 346.702 74.6016 331.41L74.5823 269.876C74.6052 259.999 76.0269 262.956 83.7135 259.138C100.654 250.723 97.9109 226.309 97.9068 211.024L97.9158 163.064C93.9059 162.922 87.5173 164.236 84.3022 161.444C80.4897 158.133 82.2797 151.764 87.1542 150.907C90.6286 150.296 94.5325 150.685 98.0653 150.69L118.704 150.71C128.629 138.587 137.187 122.913 147.325 111.808ZM352.292 84.5994C338.874 86.2164 323.063 90.2828 309.473 92.8879L166.758 121.029C162.399 121.877 157.978 122.555 153.682 123.68C149.579 128.874 145.912 134.597 142.119 140.03C141.177 141.378 132.382 151.753 135.438 151.176L304.228 151.176C306.624 146.03 314.574 136.621 318.296 131.75C329.163 117.529 340.618 102.135 351.091 87.5856C351.388 87.1735 353.737 84.457 352.292 84.5994ZM132.132 174.047C122.478 174.374 116.551 182.716 123.39 188.623C127.181 191.896 134.17 190.736 138.783 190.706L380.628 190.707C390.991 190.395 394.911 181.284 387.896 175.704C384.427 172.945 377.536 174.007 373.405 174.018L132.132 174.047ZM216.738 210.96C209.924 212.011 205.783 220.686 212.481 225.079C216.071 227.434 223.437 226.305 227.502 226.299L304.228 226.286C312.826 224.554 313.608 216.38 307.087 210.96C295.95 210.75 284.766 210.961 273.623 210.959L216.738 210.96ZM334.792 212.052C327.126 213.69 327.749 225.755 337.368 225.207C346.483 222.788 344.439 211.761 334.792 212.052ZM122.047 261.194L117.966 261.194L117.966 290.57L393.482 290.57L393.482 261.194C386.962 261.24 380.434 261.261 373.914 261.194C373.915 265.124 373.978 269.064 373.914 272.993C370.441 273.002 366.955 273.069 363.483 272.993C363.512 269.036 362.679 265.124 363.483 261.194C359.941 261.184 346.156 259.475 346.256 262.938L346.256 272.993L334.792 272.993L334.792 261.194L318.285 261.194L318.285 272.993L307.087 272.993L307.087 261.194L290.068 261.194L290.068 272.993L278.496 272.993L278.496 261.194L262.444 261.194C262.379 265.126 262.424 269.061 262.444 272.993L251.264 272.993L251.264 261.194C245.703 261.12 239.907 260.869 234.363 261.194C234.373 265.112 234.521 269.082 234.363 272.993L223.268 272.993L223.268 261.194L206.695 261.194L206.695 272.993L195.363 272.993L195.363 261.194C189.69 261.178 183.922 260.941 178.259 261.194L178.259 272.993L167.012 272.993C167.009 269.062 166.961 265.125 167.012 261.194L149.534 261.194L149.534 272.993L138.463 272.993L138.463 261.194C132.997 261.028 127.516 261.216 122.047 261.194ZM325.185 302.7L105.754 302.7L105.754 311.559L187.125 311.559L406.228 311.559L406.228 302.7L325.185 302.7ZM127.252 344.74C127.2 351.363 127.691 357.987 128.054 364.597L130.232 399.366C130.689 406.317 131.252 413.277 131.241 420.247C132.995 420.183 134.727 420.19 136.481 420.247L136.481 344.74C133.402 344.696 130.331 344.685 127.252 344.74ZM375.538 344.74L375.538 420.247C378.498 420.296 381.426 421.436 381.763 417.493C381.191 411.233 381.826 404.711 382.029 398.421C382.585 381.151 384.315 361.738 383.989 344.74C381.165 344.672 378.361 344.658 375.538 344.74ZM245.715 376.275L245.715 420.247L266.236 420.247L266.236 376.275L245.715 376.275Z"/>
</svg>
