<?xml version="1.0" encoding="utf-8" ?>
<svg xmlns="http://www.w3.org/2000/svg" xmlns:xlink="http://www.w3.org/1999/xlink" width="1023" height="1023">
	<path fill="#59c6bc" transform="scale(2 2)" d="M358.099 139.273L358.098 119.19C358.054 103.557 357.39 82.7486 377.382 79.3141C384.282 78.5688 389.747 82.103 393.062 88.1205C408.419 115.996 393.89 154.7 366.705 169.505L366.705 204.678C373.419 206.913 379.513 208.546 385.433 212.676C416.525 234.367 403.015 281.882 366.705 287.935L366.704 325.379C366.702 331.624 367.262 339.195 366.329 345.289C362.277 371.778 311.849 375.411 304.546 342.754C301.271 314.147 336.313 303.318 358.509 318.957L358.509 289.956C337.82 290.222 315.926 285.919 300.582 270.907C279.634 250.413 280.662 222.668 295.956 199.357C305.973 184.088 325.626 166.365 339.736 154.482C345.749 149.419 352.597 144.869 358.099 139.273ZM377.382 87.5441C366.112 91.2883 366.586 104.507 366.672 113.862L366.705 133.905C368.183 131.943 369.788 130.152 371.449 128.348C375.066 123.938 385.351 108.976 387.221 104.025C389.715 97.4232 385.307 87.0463 377.382 87.5441ZM358.099 175.268C346.709 181.992 335.487 189.48 324.468 196.816C303.849 210.541 284.861 231.655 299.928 257.111C311.441 276.561 337.624 281.47 358.509 281.308L358.509 250.375L358.509 221.942C349.944 222.046 342.943 223.648 336.762 229.997C319.22 248.016 340.075 254.945 340.417 260.025C341.095 270.105 329.394 262.222 325.901 258.508C313.641 245.473 317.839 225.319 330.216 213.877C338.64 206.089 347.441 204.604 358.509 204.678C358.511 201.069 358.947 176.557 358.099 175.268ZM366.705 223.004L366.705 279.623C371.655 277.11 376.23 274.729 380.187 270.744C395.389 254.492 390.297 227.613 366.705 223.004Z"/>
	<path fill="#59c6bc" transform="scale(2 2)" d="M219.895 404.76C210.692 403.513 192.566 404.768 182.537 404.768L99.6431 404.769C85.7086 404.774 70.5236 407.547 70.2675 389.185C69.9881 369.15 70.2361 349.077 70.2354 329.039L70.2311 138.256C70.2345 129.797 69.8852 121.298 80.3724 118.699C85.3756 117.459 101.01 118.137 107.228 118.153L221.876 118.143C235.499 118.137 243.395 117.729 255.727 124.553C272.184 115.997 280.724 118.152 298.873 118.161L350.728 118.153L350.728 132.696L303.625 132.694C291.456 132.685 277.462 130.844 266.028 136.029C251.133 142.782 262.367 144.704 246.392 136.362C237.314 131.622 227.155 132.686 217.273 132.69L85.0822 132.696L85.0822 389.853L227.953 389.853C232.626 402.82 247.216 409.247 260.295 407.556C271.771 406.072 278.098 399.321 284.738 390.627L427.029 390.627L427.029 311.375L427.029 132.696L404.709 132.696C406.242 127.769 406.329 123.259 406.342 118.153C412.22 118.165 426.728 117.481 431.526 118.644C442.579 121.324 441.945 130.956 441.95 139.875L442.015 388.392C442.076 406.05 428.593 404.773 415.416 404.769L292.176 404.76C277.652 425.313 245.568 427.675 226.819 411.697C224.352 409.595 222.146 407.098 219.895 404.76Z"/>
	<path fill="#59c6bc" transform="scale(2 2)" d="M248.496 299.584L248.496 173.634C250.762 173.442 252.92 173.46 255.188 173.634L255.189 261.849C255.188 276.585 254.862 291.395 255.194 306.122C255.42 316.119 257.764 324.31 249.932 332.562C235.529 347.738 208.707 345.311 194.335 331.459C177.217 313.864 189.671 292.401 212.614 288.966C228.543 286.582 236.581 290.723 248.496 299.584Z"/>
	<path fill="#59c6bc" transform="scale(2 2)" d="M118.265 187.462L118.265 173.634L242.21 173.634C242.221 178.244 242.091 182.853 242.21 187.462C237.679 187.629 233.085 187.465 228.545 187.465L118.265 187.462Z"/>
	<path fill="#59c6bc" transform="scale(2 2)" d="M118.265 228.842L118.265 215.874L242.21 215.874L242.21 228.842L118.265 228.842Z"/>
	<path fill="#59c6bc" transform="scale(2 2)" d="M118.265 269.123L118.265 255.777L242.21 255.777C242.191 260.131 242.534 264.472 242.537 268.805L242.21 269.123L118.265 269.123Z"/>
	<path fill="#59c6bc" transform="scale(2 2)" d="M118.265 296.46L170.814 296.46L183.625 296.46C180.656 300.376 179.26 305.427 178.38 310.185L130.415 310.185L118.265 310.185L118.265 296.46Z"/>
	<path fill="#59c6bc" transform="scale(2 2)" d="M248.496 341.624C250.608 339.953 252.966 338.48 255.188 336.95C255.511 337.354 255.189 351.897 255.188 353.625L248.496 353.625C248.039 350.97 248.482 344.682 248.496 341.624Z"/>
	<path fill="#59c6bc" transform="scale(2 2)" d="M118.265 351.27L118.265 338.065L190.953 338.065L190.953 351.27C188.456 351.484 185.784 351.295 183.266 351.288L118.265 351.27Z"/>
	<path fill="#59c6bc" transform="scale(2 2)" d="M237.504 347.87C239.016 347.041 240.624 346.408 242.21 345.737L242.625 345.887C242.812 348.438 242.676 351.065 242.664 353.625L237.504 353.625L237.301 353.592C236.957 352.787 237.514 349.12 237.504 347.87Z"/>
</svg>
